PathFileType	4	(X/Y/Z)	RBDS012\RBDS012runT35.trc
DataRate	CameraRate	NumFrames	NumMarkers	Units	OrigDataRate	OrigDataStartFrame	OrigNumFrames
150.000000	150.000000	4	33	mm	150.000000	562	4500
Frame#	Time	L.ASIS			L.Heel.Bottom			L.Heel.Lateral			L.Heel.Top			L.Iliac.Crest			L.MT1			L.MT5			L.PSIS			L.Shank.Bottom.Lateral			L.Shank.Bottom.Medial			L.Shank.Top.Lateral			L.Shank.Top.Medial			L.Thigh.Bottom.Lateral			L.Thigh.Bottom.Medial			L.Thigh.Top.Lateral			L.Thigh.Top.Medial			R.ASIS			R.ASY			R.Heel.Bottom			R.Heel.Lateral			R.Heel.Top			R.Iliac.Crest			R.MT1			R.MT5			R.PSIS			R.Shank.Bottom.Lateral			R.Shank.Bottom.Medial			R.Shank.Top.Lateral			R.Shank.Top.Medial			R.Thigh.Bottom.Lateral			R.Thigh.Bottom.Medial			R.Thigh.Top.Lateral			R.Thigh.Top.Medial			
		X1	Y1	Z1	X2	Y2	Z2	X3	Y3	Z3	X4	Y4	Z4	X5	Y5	Z5	X6	Y6	Z6	X7	Y7	Z7	X8	Y8	Z8	X9	Y9	Z9	X10	Y10	Z10	X11	Y11	Z11	X12	Y12	Z12	X13	Y13	Z13	X14	Y14	Z14	X15	Y15	Z15	X16	Y16	Z16	X17	Y17	Z17	X18	Y18	Z18	X19	Y19	Z19	X20	Y20	Z20	X21	Y21	Z21	X22	Y22	Z22	X23	Y23	Z23	X24	Y24	Z24	X25	Y25	Z25	X26	Y26	Z26	X27	Y27	Z27	X28	Y28	Z28	X29	Y29	Z29	X30	Y30	Z30	X31	Y31	Z31	X32	Y32	Z32	X33	Y33	Z33	

563	3.746666666666667	2257.792151758692	1022.139778583688	871.3743762440033	1514.806472762293	404.9286956985689	966.7541643479921	1530.133828759136	387.8965918036561	914.5576703163575	1563.64049269587	415.9815857090635	958.6720113130118	2240.187246678149	1105.757245892393	852.7732728706573	1616.300954460019	203.622363700229	967.8264420703883	1587.106311846667	238.6562669131201	859.4097195618714	2105.265368775856	1099.639623622796	956.5100322739627	1668.910997371757	402.633847098234	885.9972591265953	1651.054295376884	438.2842826702682	925.0914100339129	1731.135832238187	451.5776879875525	871.2661453372419	1714.539110143376	486.5082160090217	908.8561212658492	2063.478677083465	654.0803538310125	841.8066192896822	1998.197103872735	676.684137006377	866.3354093441521	2088.844569933049	759.9539563055849	822.8545618745411	2029.405982788761	781.2761855116873	849.8679700796697	2261.976743105617	1042.303124408933	1132.50940422801	2541.217859791353	155.3163535089525	1082.061023459415	2385.054284524592	29.7233562865833	1051.692464292332	2394.215812879012	50.80909692898317	1091.245523714879	2376.743240373656	80.24389358730124	1053.115195578117	2219.68962683467	1109.220947755238	1174.268116816719	2591.569906314853	128.2375484482379	1038.108384819791	2553.368050706392	106.8118859157512	1148.889014792545	2101.777121759353	1091.825250277849	1065.881975898968	2399.210500767417	204.0090280700389	1112.873304539685	2363.41848760123	205.0901262872836	1076.312752062068	2378.741473877058	284.3399874644469	1132.544179470967	2340.801262825388	280.7978667234622	1094.618287647869	2314.85807471354	634.7571546756615	1163.798538099102	2261.825037855939	610.8288801830181	1119.358934467368	2258.113444897428	727.8546952224015	1177.64909309649	2207.625394165118	706.3000148279106	1136.452674650897	
564	3.753333333333333	2258.443061173489	1020.741989525143	871.6396167244852	1512.488810441736	427.7770631260727	966.0759677453609	1527.241739520662	409.7684966115235	914.0420462211169	1561.834394486436	436.1774127977201	958.5293750304152	2238.794110245718	1105.513784906687	852.8751012798201	1603.319159003317	221.8107472760332	968.4047707892211	1576.787122883781	257.8322867990508	859.640274990632	2105.614861147515	1097.719105940156	958.1165780543546	1666.282463838934	416.4513364937059	885.9847721856112	1650.367733828272	453.3386270226435	924.7947496897992	1731.25905668687	461.7578883846422	871.3570994582889	1716.553972286334	497.8242191644263	908.6774903028005	2068.903676785629	649.5494555278169	841.8782671955585	2003.261748000948	671.2207583315885	866.3298491349223	2092.838793337351	755.8045382718324	823.1122614008613	2033.018153320169	776.2607153529896	850.0146514458592	2261.944186431558	1038.355571127971	1132.718139205556	2547.792784668177	153.9356345623105	1082.288353105599	2393.16121993106	26.51732745671338	1053.424242887206	2402.484482192482	47.60681142038923	1092.883787632143	2384.352735442639	76.84593275418513	1054.834460825394	2220.431652166925	1105.562191742982	1174.433206792492	2598.109650951894	127.8059438239928	1037.693658477827	2561.225550506833	105.365919072444	1148.652737707062	2101.855206435218	1088.555596236181	1067.279745952428	2404.610780209125	200.2821179031987	1114.015412494569	2368.566549724402	200.4424176726289	1077.552397335201	2382.470266663325	280.4157464621313	1133.417011500831	2344.405963857653	275.8293666210033	1095.606317003883	2314.107689766123	630.3294211705036	1164.162016255339	2261.128158312895	606.9253205041153	1119.330311477869	2257.614798608006	723.4815047976097	1178.578287377679	2207.259998902776	702.5004807790352	1136.850356645522	
565	3.76	2258.96501599465	1018.855725998813	871.8433957969917	1512.588014726748	450.7746962857333	964.6460331747636	1526.791225316247	431.5754154881749	912.9365098723938	1562.332592160183	456.3271559953266	957.820724250222	2237.085497329822	1104.714133110887	852.7723610209715	1591.972425192758	240.4715046404752	969.3521777874274	1568.500168898063	276.9979828054931	860.0564877841362	2105.709818462753	1094.960344461722	959.7765551539159	1665.570853153102	429.9100879055225	885.7798181920394	1651.572055488861	468.0228171945784	924.1165649705597	1733.105965307966	471.3947526749863	871.2541095704808	1720.269721684614	508.5765507636856	908.1532030984657	2074.587518411675	644.2402310396875	841.8692219633426	2008.694869826079	664.859907823875	866.530078441044	2096.861670896703	750.9055782506221	823.2943038240146	2036.776050929707	770.3853976649207	850.3609641222529	2261.702805052538	1033.869777253786	1132.999254693746	2550.944397421266	150.9743295972336	1081.976458767899	2396.226944422415	24.37835758577967	1054.825044490312	2406.072424530587	45.35541058517073	1094.130791128829	2387.765019535419	74.51224985050447	1056.088717297323	2220.817850280205	1101.391399679024	1174.551771718065	2600.666340851352	124.9975209414069	1036.71903682939	2564.941147046748	102.3430591578795	1147.872478002247	2101.553402853601	1084.417838914838	1068.685336345388	2407.351984691539	196.5358699818689	1114.846401981238	2371.030158420235	196.1771978195432	1078.536295852119	2384.433956203779	276.6072213120417	1134.01243168529	2346.157115893106	271.4137879266713	1096.415753384539	2314.241602757538	626.339941972432	1164.394157077871	2261.145493980251	603.1200009572402	1119.599769217098	2257.798515593282	719.4150658411723	1179.36231254948	2207.429736833495	698.7031120892235	1137.446608890206	
566	3.766666666666667	2259.336730022771	1016.4490502277	871.9935272973941	1515.194426506865	473.6310577168393	962.5882042754282	1528.80400318494	453.0644599422711	911.3371482346947	1565.193730206773	476.1863611552074	956.6176634640433	2235.156141286953	1103.231708230846	852.4793089351431	1582.515557700379	259.4295736678122	970.5826309781872	1562.312330786194	295.9956238514331	860.6210535982851	2105.54161922321	1091.321004212503	961.3836486612952	1666.802792017818	442.8840977275137	885.3950774605839	1654.7000043061	482.192139599456	923.0945981815314	1736.662158168585	480.397367103866	870.9474876437218	1725.682228267608	518.6588598475255	907.2967452384868	2080.457405587759	638.2335247224587	841.759251039888	2014.444034840992	657.6892328688256	866.9382579247841	2100.848932629977	745.3223849130493	823.384488881411	2040.630542165582	763.7237003606497	850.8977304736288	2261.2708660394	1028.934180619656	1133.384545224148	2550.6821937612	146.4142558251685	1081.17242636588	2394.283821391594	23.15611993967429	1055.881858087354	2404.975068488765	43.91901688166153	1094.977231731992	2386.964130591228	73.10796755101724	1056.863798248374	2220.821622794612	1096.723259235261	1174.666446599375	2599.296486898102	119.8179814101881	1035.273243738487	2564.517648362686	97.74125792758404	1146.645182575771	2100.875533103331	1079.450845861639	1070.008455633216	2407.444105399699	192.729802006856	1115.365138254069	2370.810233563607	192.2730174008625	1079.27880099232	2384.658826709155	272.8856801560763	1134.340390398916	2346.075108810928	267.5454983461075	1097.063733951484	2315.147754433867	622.7500848715987	1164.49765212447	2261.797315828716	599.4010143931466	1120.106128673342	2258.570465713181	715.6382295155705	1179.953858144421	2208.058706274422	694.904680605331	1138.16886889477	
